<svg width="324" height="112" viewBox="0 0 324 112" fill="none" xmlns="http://www.w3.org/2000/svg">
<path d="M28.125 25.75V57H12.5V25.75H0V13.25H40.625V25.75H28.125ZM81.25 13.25V25.75H59.375V28.875H81.25V41.375H59.375V44.5H81.25V57H43.75V13.25H81.25ZM84.375 57V13.25H106.25C120.833 13.25 128.125 20.5417 128.125 35.125C128.125 49.7083 120.833 57 106.25 57H84.375ZM100 25.75V44.5H106.25C110.417 44.5 112.5 41.375 112.5 35.125C112.5 28.875 110.417 25.75 106.25 25.75H100Z" fill="#FF2B06"/>
<path d="M137.167 27.6324L128.847 13.9606H139.589L142.499 19.8199L145.468 13.9606H156.191L147.87 27.5934L156.191 41.3043H145.468L142.519 35.4449L139.492 41.3043H128.847L137.167 27.6324Z" fill="#FF2B06"/>
<path d="M167.398 13.0938H188.054C192.138 13.0938 195.429 14.25 197.929 16.5625C200.429 18.8542 201.679 22.0833 201.679 26.25C201.679 29.8333 200.565 32.9583 198.336 35.625C196.107 38.2708 192.679 39.5938 188.054 39.5938H173.617V59H167.398V13.0938ZM195.398 26.2812C195.398 22.9062 194.148 20.6146 191.648 19.4062C190.273 18.7604 188.388 18.4375 185.992 18.4375H173.617V34.3438H185.992C188.784 34.3438 191.044 33.75 192.773 32.5625C194.523 31.375 195.398 29.2812 195.398 26.2812ZM228.836 11.8438C234.648 11.8438 239.159 13.375 242.367 16.4375C245.575 19.5 247.357 22.9792 247.711 26.875H241.648C240.961 23.9167 239.586 21.5729 237.523 19.8438C235.482 18.1146 232.607 17.25 228.898 17.25C224.377 17.25 220.721 18.8438 217.929 22.0312C215.159 25.1979 213.773 30.0625 213.773 36.625C213.773 42 215.023 46.3646 217.523 49.7188C220.044 53.0521 223.794 54.7188 228.773 54.7188C233.357 54.7188 236.846 52.9583 239.242 49.4375C240.513 47.5833 241.461 45.1458 242.086 42.125H248.148C247.607 46.9583 245.815 51.0104 242.773 54.2812C239.127 58.2188 234.211 60.1875 228.023 60.1875C222.69 60.1875 218.211 58.5729 214.586 55.3438C209.815 51.0729 207.429 44.4792 207.429 35.5625C207.429 28.7917 209.221 23.2396 212.804 18.9062C216.679 14.1979 222.023 11.8438 228.836 11.8438ZM256.336 13.0938H289.804V18.7188H262.398V32.6562H287.742V37.9688H262.398V53.5312H290.273V59H256.336V13.0938Z" fill="white"/>
<path d="M4.17543 70.7273L5.87784 73.9691L7.62251 70.7273H10.2607L7.57422 75.3636L10.3331 80H7.70703L5.87784 76.7944L4.07884 80H1.42259L4.17543 75.3636L1.51918 70.7273H4.17543Z" fill="#FF2B06"/>
<path d="M14.6021 74.12V71.9769H22.9391V74.12H14.6021ZM14.6021 78.1286V75.9854H22.9391V78.1286H14.6021Z" fill="black"/>
<path d="M27.8118 80V70.7273H30.3836V80H27.8118ZM29.1037 69.532C28.7214 69.532 28.3934 69.4052 28.1197 69.1516C27.8501 68.8941 27.7152 68.5862 27.7152 68.228C27.7152 67.8738 27.8501 67.57 28.1197 67.3164C28.3934 67.0588 28.7214 66.93 29.1037 66.93C29.4861 66.93 29.8121 67.0588 30.0817 67.3164C30.3554 67.57 30.4922 67.8738 30.4922 68.228C30.4922 68.5862 30.3554 68.8941 30.0817 69.1516C29.8121 69.4052 29.4861 69.532 29.1037 69.532ZM34.1654 74.6392V80H31.5937V70.7273H34.0447V72.3633H34.1533C34.3586 71.824 34.7027 71.3974 35.1856 71.0835C35.6686 70.7655 36.2542 70.6065 36.9424 70.6065C37.5863 70.6065 38.1478 70.7474 38.6267 71.0291C39.1056 71.3108 39.4779 71.7133 39.7435 72.2365C40.0091 72.7557 40.142 73.3755 40.142 74.0959V80H37.5702V74.5547C37.5742 73.9872 37.4294 73.5445 37.1356 73.2266C36.8418 72.9046 36.4373 72.7436 35.9221 72.7436C35.576 72.7436 35.2702 72.8181 35.0045 72.967C34.7429 73.1159 34.5377 73.3332 34.3888 73.619C34.2439 73.9007 34.1694 74.2408 34.1654 74.6392ZM44.7358 80.1509C44.0315 80.1509 43.3936 79.9698 42.8221 79.6076C42.2546 79.2414 41.8038 78.7041 41.4698 77.9957C41.1398 77.2834 40.9748 76.41 40.9748 75.3757C40.9748 74.3132 41.1458 73.4298 41.4879 72.7255C41.83 72.0172 42.2848 71.4879 42.8522 71.1378C43.4237 70.7836 44.0496 70.6065 44.7297 70.6065C45.2489 70.6065 45.6815 70.6951 46.0277 70.8722C46.3778 71.0452 46.6595 71.2625 46.8728 71.5241C47.0902 71.7817 47.2552 72.0353 47.3679 72.2848H47.4463V67.6364H50.012V80H47.4765V78.5149H47.3679C47.2471 78.7725 47.0761 79.0281 46.8547 79.2816C46.6374 79.5311 46.3537 79.7384 46.0035 79.9034C45.6574 80.0684 45.2348 80.1509 44.7358 80.1509ZM45.5507 78.1044C45.9653 78.1044 46.3154 77.9917 46.6012 77.7663C46.8909 77.5369 47.1123 77.217 47.2652 76.8065C47.4222 76.396 47.5007 75.915 47.5007 75.3636C47.5007 74.8123 47.4242 74.3333 47.2713 73.9268C47.1183 73.5204 46.897 73.2064 46.6072 72.9851C46.3174 72.7637 45.9653 72.6531 45.5507 72.6531C45.1282 72.6531 44.772 72.7678 44.4822 72.9972C44.1924 73.2266 43.9731 73.5445 43.8242 73.951C43.6753 74.3575 43.6008 74.8284 43.6008 75.3636C43.6008 75.9029 43.6753 76.3799 43.8242 76.7944C43.9771 77.2049 44.1965 77.5269 44.4822 77.7603C44.772 77.9897 45.1282 78.1044 45.5507 78.1044ZM55.5023 80.1811C54.5485 80.1811 53.7275 79.9879 53.0393 79.6016C52.3551 79.2112 51.8278 78.6598 51.4576 77.9474C51.0873 77.2311 50.9022 76.3839 50.9022 75.4059C50.9022 74.4521 51.0873 73.6149 51.4576 72.8945C51.8278 72.1741 52.349 71.6127 53.0211 71.2102C53.6973 70.8078 54.4901 70.6065 55.3997 70.6065C56.0114 70.6065 56.5809 70.7051 57.1081 70.9023C57.6394 71.0955 58.1022 71.3873 58.4966 71.7777C58.8951 72.1681 59.205 72.6591 59.4263 73.2507C59.6477 73.8383 59.7584 74.5265 59.7584 75.3153V76.0217H51.9285V74.4279H57.3376C57.3376 74.0576 57.2571 73.7296 57.0961 73.4439C56.9351 73.1581 56.7117 72.9348 56.426 72.7738C56.1443 72.6088 55.8162 72.5263 55.442 72.5263C55.0516 72.5263 54.7055 72.6168 54.4036 72.7979C54.1058 72.975 53.8724 73.2145 53.7033 73.5163C53.5343 73.8142 53.4478 74.1462 53.4437 74.5124V76.0277C53.4437 76.4865 53.5282 76.8829 53.6973 77.217C53.8703 77.551 54.1138 77.8086 54.4278 77.9897C54.7417 78.1708 55.1139 78.2614 55.5446 78.2614C55.8303 78.2614 56.0919 78.2211 56.3294 78.1406C56.5668 78.0601 56.7701 77.9394 56.9391 77.7784C57.1081 77.6174 57.2369 77.4202 57.3255 77.1868L59.704 77.3438C59.5833 77.9152 59.3358 78.4143 58.9615 78.8409C58.5912 79.2635 58.1123 79.5935 57.5247 79.831C56.9411 80.0644 56.267 80.1811 55.5023 80.1811ZM60.5866 83.4773V70.7273H63.1221V72.2848H63.2368C63.3495 72.0353 63.5125 71.7817 63.7258 71.5241C63.9432 71.2625 64.2249 71.0452 64.571 70.8722C64.9211 70.6951 65.3558 70.6065 65.875 70.6065C66.5511 70.6065 67.1749 70.7836 67.7464 71.1378C68.3179 71.4879 68.7747 72.0172 69.1168 72.7255C69.4589 73.4298 69.63 74.3132 69.63 75.3757C69.63 76.41 69.4629 77.2834 69.1289 77.9957C68.7989 78.7041 68.3481 79.2414 67.7766 79.6076C67.2091 79.9698 66.5733 80.1509 65.8689 80.1509C65.3699 80.1509 64.9453 80.0684 64.5952 79.9034C64.249 79.7384 63.9653 79.5311 63.7439 79.2816C63.5226 79.0281 63.3536 78.7725 63.2368 78.5149H63.1584V83.4773H60.5866ZM63.104 75.3636C63.104 75.915 63.1805 76.396 63.3334 76.8065C63.4864 77.217 63.7077 77.5369 63.9975 77.7663C64.2873 77.9917 64.6394 78.1044 65.054 78.1044C65.4725 78.1044 65.8267 77.9897 66.1165 77.7603C66.4062 77.5269 66.6256 77.2049 66.7745 76.7944C66.9274 76.3799 67.0039 75.9029 67.0039 75.3636C67.0039 74.8284 66.9294 74.3575 66.7805 73.951C66.6316 73.5445 66.4123 73.2266 66.1225 72.9972C65.8327 72.7678 65.4765 72.6531 65.054 72.6531C64.6354 72.6531 64.2812 72.7637 63.9915 72.9851C63.7057 73.2064 63.4864 73.5204 63.3334 73.9268C63.1805 74.3333 63.104 74.8123 63.104 75.3636ZM74.7203 80.1811C73.7665 80.1811 72.9454 79.9879 72.2572 79.6016C71.573 79.2112 71.0458 78.6598 70.6755 77.9474C70.3053 77.2311 70.1202 76.3839 70.1202 75.4059C70.1202 74.4521 70.3053 73.6149 70.6755 72.8945C71.0458 72.1741 71.567 71.6127 72.2391 71.2102C72.9153 70.8078 73.7081 70.6065 74.6177 70.6065C75.2294 70.6065 75.7989 70.7051 76.3261 70.9023C76.8574 71.0955 77.3202 71.3873 77.7146 71.7777C78.113 72.1681 78.4229 72.6591 78.6443 73.2507C78.8657 73.8383 78.9763 74.5265 78.9763 75.3153V76.0217H71.1464V74.4279H76.5555C76.5555 74.0576 76.475 73.7296 76.314 73.4439C76.1531 73.1581 75.9297 72.9348 75.6439 72.7738C75.3622 72.6088 75.0342 72.5263 74.6599 72.5263C74.2695 72.5263 73.9234 72.6168 73.6216 72.7979C73.3237 72.975 73.0903 73.2145 72.9213 73.5163C72.7523 73.8142 72.6657 74.1462 72.6617 74.5124V76.0277C72.6617 76.4865 72.7462 76.8829 72.9153 77.217C73.0883 77.551 73.3318 77.8086 73.6457 77.9897C73.9596 78.1708 74.3319 78.2614 74.7626 78.2614C75.0483 78.2614 75.3099 78.2211 75.5474 78.1406C75.7848 78.0601 75.988 77.9394 76.1571 77.7784C76.3261 77.6174 76.4549 77.4202 76.5434 77.1868L78.922 77.3438C78.8013 77.9152 78.5537 78.4143 78.1795 78.8409C77.8092 79.2635 77.3303 79.5935 76.7427 79.831C76.1591 80.0644 75.485 80.1811 74.7203 80.1811ZM82.3763 74.6392V80H79.8046V70.7273H82.2556V72.3633H82.3643C82.5695 71.824 82.9136 71.3974 83.3966 71.0835C83.8795 70.7655 84.4651 70.6065 85.1533 70.6065C85.7973 70.6065 86.3587 70.7474 86.8376 71.0291C87.3166 71.3108 87.6888 71.7133 87.9545 72.2365C88.2201 72.7557 88.3529 73.3755 88.3529 74.0959V80H85.7812V74.5547C85.7852 73.9872 85.6403 73.5445 85.3465 73.2266C85.0527 72.9046 84.6482 72.7436 84.1331 72.7436C83.787 72.7436 83.4811 72.8181 83.2155 72.967C82.9539 73.1159 82.7486 73.3332 82.5997 73.619C82.4548 73.9007 82.3804 74.2408 82.3763 74.6392ZM92.9467 80.1509C92.2424 80.1509 91.6045 79.9698 91.033 79.6076C90.4655 79.2414 90.0148 78.7041 89.6807 77.9957C89.3507 77.2834 89.1857 76.41 89.1857 75.3757C89.1857 74.3132 89.3567 73.4298 89.6988 72.7255C90.0409 72.0172 90.4957 71.4879 91.0632 71.1378C91.6347 70.7836 92.2605 70.6065 92.9407 70.6065C93.4598 70.6065 93.8925 70.6951 94.2386 70.8722C94.5887 71.0452 94.8705 71.2625 95.0838 71.5241C95.3011 71.7817 95.4661 72.0353 95.5788 72.2848H95.6573V67.6364H98.223V80H95.6875V78.5149H95.5788C95.4581 78.7725 95.287 79.0281 95.0657 79.2816C94.8483 79.5311 94.5646 79.7384 94.2145 79.9034C93.8683 80.0684 93.4458 80.1509 92.9467 80.1509ZM93.7617 78.1044C94.1762 78.1044 94.5264 77.9917 94.8121 77.7663C95.1019 77.5369 95.3232 77.217 95.4762 76.8065C95.6331 76.396 95.7116 75.915 95.7116 75.3636C95.7116 74.8123 95.6351 74.3333 95.4822 73.9268C95.3293 73.5204 95.1079 73.2064 94.8181 72.9851C94.5284 72.7637 94.1762 72.6531 93.7617 72.6531C93.3391 72.6531 92.9829 72.7678 92.6931 72.9972C92.4034 73.2266 92.184 73.5445 92.0351 73.951C91.8862 74.3575 91.8118 74.8284 91.8118 75.3636C91.8118 75.9029 91.8862 76.3799 92.0351 76.7944C92.1881 77.2049 92.4074 77.5269 92.6931 77.7603C92.9829 77.9897 93.3391 78.1044 93.7617 78.1044ZM103.713 80.1811C102.759 80.1811 101.938 79.9879 101.25 79.6016C100.566 79.2112 100.039 78.6598 99.6685 77.9474C99.2983 77.2311 99.1131 76.3839 99.1131 75.4059C99.1131 74.4521 99.2983 73.6149 99.6685 72.8945C100.039 72.1741 100.56 71.6127 101.232 71.2102C101.908 70.8078 102.701 70.6065 103.611 70.6065C104.222 70.6065 104.792 70.7051 105.319 70.9023C105.85 71.0955 106.313 71.3873 106.708 71.7777C107.106 72.1681 107.416 72.6591 107.637 73.2507C107.859 73.8383 107.969 74.5265 107.969 75.3153V76.0217H100.139V74.4279H105.548C105.548 74.0576 105.468 73.7296 105.307 73.4439C105.146 73.1581 104.923 72.9348 104.637 72.7738C104.355 72.6088 104.027 72.5263 103.653 72.5263C103.263 72.5263 102.916 72.6168 102.615 72.7979C102.317 72.975 102.083 73.2145 101.914 73.5163C101.745 73.8142 101.659 74.1462 101.655 74.5124V76.0277C101.655 76.4865 101.739 76.8829 101.908 77.217C102.081 77.551 102.325 77.8086 102.639 77.9897C102.953 78.1708 103.325 78.2614 103.756 78.2614C104.041 78.2614 104.303 78.2211 104.54 78.1406C104.778 78.0601 104.981 77.9394 105.15 77.7784C105.319 77.6174 105.448 77.4202 105.536 77.1868L107.915 77.3438C107.794 77.9152 107.547 78.4143 107.172 78.8409C106.802 79.2635 106.323 79.5935 105.736 79.831C105.152 80.0644 104.478 80.1811 103.713 80.1811ZM111.369 74.6392V80H108.798V70.7273H111.249V72.3633H111.357C111.562 71.824 111.907 71.3974 112.39 71.0835C112.872 70.7655 113.458 70.6065 114.146 70.6065C114.79 70.6065 115.352 70.7474 115.831 71.0291C116.31 71.3108 116.682 71.7133 116.947 72.2365C117.213 72.7557 117.346 73.3755 117.346 74.0959V80H114.774V74.5547C114.778 73.9872 114.633 73.5445 114.339 73.2266C114.046 72.9046 113.641 72.7436 113.126 72.7436C112.78 72.7436 112.474 72.8181 112.208 72.967C111.947 73.1159 111.742 73.3332 111.593 73.619C111.448 73.9007 111.373 74.2408 111.369 74.6392ZM123.455 70.7273V72.6591H117.871V70.7273H123.455ZM119.139 68.5057H121.71V77.1506C121.71 77.388 121.746 77.5732 121.819 77.706C121.891 77.8348 121.992 77.9253 122.121 77.9776C122.254 78.0299 122.407 78.0561 122.58 78.0561C122.7 78.0561 122.821 78.046 122.942 78.0259C123.063 78.0018 123.155 77.9837 123.219 77.9716L123.624 79.8853C123.495 79.9255 123.314 79.9718 123.081 80.0241C122.847 80.0805 122.563 80.1147 122.229 80.1268C121.61 80.1509 121.066 80.0684 120.599 79.8793C120.137 79.6901 119.776 79.3963 119.519 78.9979C119.261 78.5994 119.135 78.0964 119.139 77.4886V68.5057ZM127.051 67.6364V80H124.479V67.6364H127.051ZM129.849 83.4773C129.523 83.4773 129.217 83.4511 128.931 83.3988C128.65 83.3505 128.416 83.2881 128.231 83.2116L128.811 81.2919C129.112 81.3845 129.384 81.4348 129.626 81.4428C129.871 81.4509 130.082 81.3945 130.259 81.2738C130.441 81.1531 130.587 80.9478 130.7 80.658L130.851 80.2656L127.525 70.7273H130.229L132.149 77.5369H132.246L134.183 70.7273H136.906L133.302 81.0021C133.129 81.5012 132.894 81.9358 132.596 82.3061C132.302 82.6804 131.93 82.9682 131.479 83.1694C131.028 83.3746 130.485 83.4773 129.849 83.4773ZM144.646 80.1811C143.709 80.1811 142.898 79.9819 142.213 79.5835C141.533 79.181 141.008 78.6216 140.638 77.9052C140.268 77.1848 140.082 76.3497 140.082 75.3999C140.082 74.442 140.268 73.6049 140.638 72.8885C141.008 72.1681 141.533 71.6087 142.213 71.2102C142.898 70.8078 143.709 70.6065 144.646 70.6065C145.584 70.6065 146.393 70.8078 147.073 71.2102C147.757 71.6087 148.285 72.1681 148.655 72.8885C149.025 73.6049 149.21 74.442 149.21 75.3999C149.21 76.3497 149.025 77.1848 148.655 77.9052C148.285 78.6216 147.757 79.181 147.073 79.5835C146.393 79.9819 145.584 80.1811 144.646 80.1811ZM144.658 78.1889C145.085 78.1889 145.441 78.0682 145.727 77.8267C146.013 77.5812 146.228 77.2472 146.373 76.8246C146.522 76.402 146.596 75.921 146.596 75.3817C146.596 74.8424 146.522 74.3615 146.373 73.9389C146.228 73.5163 146.013 73.1823 145.727 72.9368C145.441 72.6913 145.085 72.5685 144.658 72.5685C144.228 72.5685 143.866 72.6913 143.572 72.9368C143.282 73.1823 143.063 73.5163 142.914 73.9389C142.769 74.3615 142.696 74.8424 142.696 75.3817C142.696 75.921 142.769 76.402 142.914 76.8246C143.063 77.2472 143.282 77.5812 143.572 77.8267C143.866 78.0682 144.228 78.1889 144.658 78.1889ZM150.033 80V70.7273H152.526V72.3452H152.622C152.791 71.7696 153.075 71.335 153.474 71.0412C153.872 70.7434 154.331 70.5945 154.85 70.5945C154.979 70.5945 155.118 70.6025 155.267 70.6186C155.415 70.6347 155.546 70.6568 155.659 70.685V72.967C155.538 72.9308 155.371 72.8986 155.158 72.8704C154.945 72.8422 154.749 72.8281 154.572 72.8281C154.194 72.8281 153.856 72.9106 153.558 73.0756C153.264 73.2366 153.031 73.462 152.858 73.7518C152.689 74.0415 152.604 74.3756 152.604 74.7539V80H150.033ZM159.884 83.6705C159.051 83.6705 158.337 83.5558 157.741 83.3263C157.15 83.101 156.679 82.7931 156.329 82.4027C155.979 82.0123 155.751 81.5736 155.647 81.0866L158.025 80.7667C158.098 80.9518 158.212 81.1249 158.369 81.2859C158.526 81.4469 158.733 81.5756 158.991 81.6722C159.253 81.7728 159.571 81.8232 159.945 81.8232C160.504 81.8232 160.965 81.6863 161.327 81.4126C161.694 81.143 161.877 80.6902 161.877 80.0543V78.358H161.768C161.655 78.6155 161.486 78.859 161.261 79.0884C161.036 79.3178 160.746 79.505 160.392 79.6499C160.037 79.7947 159.615 79.8672 159.124 79.8672C158.428 79.8672 157.794 79.7062 157.222 79.3842C156.655 79.0582 156.202 78.5612 155.864 77.8931C155.53 77.221 155.363 76.3718 155.363 75.3455C155.363 74.2951 155.534 73.4177 155.876 72.7134C156.218 72.0091 156.673 71.4819 157.24 71.1317C157.812 70.7816 158.438 70.6065 159.118 70.6065C159.637 70.6065 160.072 70.6951 160.422 70.8722C160.772 71.0452 161.054 71.2625 161.267 71.5241C161.484 71.7817 161.651 72.0353 161.768 72.2848H161.865V70.7273H164.418V80.0906C164.418 80.8794 164.225 81.5394 163.839 82.0707C163.452 82.6019 162.917 83.0004 162.233 83.266C161.553 83.5356 160.77 83.6705 159.884 83.6705ZM159.939 77.9354C160.353 77.9354 160.704 77.8327 160.989 77.6275C161.279 77.4182 161.5 77.1204 161.653 76.734C161.81 76.3436 161.889 75.8768 161.889 75.3335C161.889 74.7901 161.812 74.3192 161.659 73.9208C161.506 73.5183 161.285 73.2064 160.995 72.9851C160.706 72.7637 160.353 72.6531 159.939 72.6531C159.516 72.6531 159.16 72.7678 158.87 72.9972C158.581 73.2225 158.361 73.5365 158.212 73.9389C158.063 74.3414 157.989 74.8062 157.989 75.3335C157.989 75.8687 158.063 76.3316 158.212 76.7219C158.365 77.1083 158.585 77.4081 158.87 77.6214C159.16 77.8307 159.516 77.9354 159.939 77.9354ZM168.259 80.1751C167.667 80.1751 167.14 80.0724 166.677 79.8672C166.214 79.6579 165.848 79.35 165.579 78.9435C165.313 78.533 165.18 78.0219 165.18 77.4102C165.18 76.895 165.275 76.4624 165.464 76.1122C165.653 75.7621 165.911 75.4804 166.237 75.267C166.563 75.0537 166.933 74.8928 167.347 74.7841C167.766 74.6754 168.205 74.599 168.663 74.5547C169.203 74.4983 169.637 74.446 169.967 74.3977C170.297 74.3454 170.537 74.2689 170.686 74.1683C170.835 74.0677 170.909 73.9188 170.909 73.7216V73.6854C170.909 73.303 170.788 73.0072 170.547 72.7979C170.309 72.5887 169.971 72.484 169.533 72.484C169.07 72.484 168.702 72.5866 168.428 72.7919C168.154 72.9931 167.973 73.2467 167.885 73.5526L165.506 73.3594C165.627 72.7959 165.864 72.3089 166.218 71.8984C166.573 71.4839 167.029 71.166 167.589 70.9446C168.152 70.7192 168.804 70.6065 169.545 70.6065C170.06 70.6065 170.553 70.6669 171.024 70.7876C171.499 70.9084 171.919 71.0955 172.286 71.3491C172.656 71.6026 172.948 71.9286 173.161 72.3271C173.374 72.7215 173.481 73.1944 173.481 73.7457V80H171.042V78.7141H170.97C170.821 79.0039 170.621 79.2595 170.372 79.4808C170.122 79.6982 169.822 79.8692 169.472 79.994C169.122 80.1147 168.718 80.1751 168.259 80.1751ZM168.995 78.4002C169.374 78.4002 169.708 78.3258 169.998 78.1768C170.287 78.0239 170.515 77.8187 170.68 77.5611C170.845 77.3035 170.927 77.0117 170.927 76.6857V75.7017C170.847 75.754 170.736 75.8023 170.595 75.8466C170.458 75.8868 170.303 75.9251 170.13 75.9613C169.957 75.9935 169.784 76.0237 169.611 76.0518C169.438 76.076 169.281 76.0981 169.14 76.1183C168.838 76.1625 168.575 76.233 168.349 76.3295C168.124 76.4261 167.949 76.5569 167.824 76.7219C167.7 76.8829 167.637 77.0842 167.637 77.3256C167.637 77.6758 167.764 77.9434 168.017 78.1286C168.275 78.3097 168.601 78.4002 168.995 78.4002ZM177.198 74.6392V80H174.626V70.7273H177.077V72.3633H177.186C177.391 71.824 177.735 71.3974 178.218 71.0835C178.701 70.7655 179.287 70.6065 179.975 70.6065C180.619 70.6065 181.18 70.7474 181.659 71.0291C182.138 71.3108 182.51 71.7133 182.776 72.2365C183.042 72.7557 183.174 73.3755 183.174 74.0959V80H180.603V74.5547C180.607 73.9872 180.462 73.5445 180.168 73.2266C179.874 72.9046 179.47 72.7436 178.955 72.7436C178.608 72.7436 178.303 72.8181 178.037 72.967C177.775 73.1159 177.57 73.3332 177.421 73.619C177.276 73.9007 177.202 74.2408 177.198 74.6392ZM184.351 80V70.7273H186.923V80H184.351ZM185.643 69.532C185.261 69.532 184.933 69.4052 184.659 69.1516C184.39 68.8941 184.255 68.5862 184.255 68.228C184.255 67.8738 184.39 67.57 184.659 67.3164C184.933 67.0588 185.261 66.93 185.643 66.93C186.026 66.93 186.352 67.0588 186.621 67.3164C186.895 67.57 187.032 67.8738 187.032 68.228C187.032 68.5862 186.895 68.8941 186.621 69.1516C186.352 69.4052 186.026 69.532 185.643 69.532ZM188.085 80V78.4666L192.625 72.8462V72.7798H188.242V70.7273H195.722V72.3995L191.459 77.881V77.9474H195.879V80H188.085ZM200.955 80.1811C200.001 80.1811 199.18 79.9879 198.492 79.6016C197.808 79.2112 197.281 78.6598 196.911 77.9474C196.54 77.2311 196.355 76.3839 196.355 75.4059C196.355 74.4521 196.54 73.6149 196.911 72.8945C197.281 72.1741 197.802 71.6127 198.474 71.2102C199.15 70.8078 199.943 70.6065 200.853 70.6065C201.464 70.6065 202.034 70.7051 202.561 70.9023C203.092 71.0955 203.555 71.3873 203.95 71.7777C204.348 72.1681 204.658 72.6591 204.879 73.2507C205.101 73.8383 205.211 74.5265 205.211 75.3153V76.0217H197.381V74.4279H202.79C202.79 74.0576 202.71 73.7296 202.549 73.4439C202.388 73.1581 202.165 72.9348 201.879 72.7738C201.597 72.6088 201.269 72.5263 200.895 72.5263C200.504 72.5263 200.158 72.6168 199.857 72.7979C199.559 72.975 199.325 73.2145 199.156 73.5163C198.987 73.8142 198.901 74.1462 198.897 74.5124V76.0277C198.897 76.4865 198.981 76.8829 199.15 77.217C199.323 77.551 199.567 77.8086 199.881 77.9897C200.195 78.1708 200.567 78.2614 200.998 78.2614C201.283 78.2614 201.545 78.2211 201.782 78.1406C202.02 78.0601 202.223 77.9394 202.392 77.7784C202.561 77.6174 202.69 77.4202 202.778 77.1868L205.157 77.3438C205.036 77.9152 204.789 78.4143 204.414 78.8409C204.044 79.2635 203.565 79.5935 202.978 79.831C202.394 80.0644 201.72 80.1811 200.955 80.1811ZM209.456 80.1509C208.752 80.1509 208.114 79.9698 207.543 79.6076C206.975 79.2414 206.525 78.7041 206.19 77.9957C205.86 77.2834 205.695 76.41 205.695 75.3757C205.695 74.3132 205.866 73.4298 206.209 72.7255C206.551 72.0172 207.005 71.4879 207.573 71.1378C208.144 70.7836 208.77 70.6065 209.45 70.6065C209.97 70.6065 210.402 70.6951 210.748 70.8722C211.099 71.0452 211.38 71.2625 211.594 71.5241C211.811 71.7817 211.976 72.0353 212.089 72.2848H212.167V67.6364H214.733V80H212.197V78.5149H212.089C211.968 78.7725 211.797 79.0281 211.575 79.2816C211.358 79.5311 211.074 79.7384 210.724 79.9034C210.378 80.0684 209.956 80.1509 209.456 80.1509ZM210.271 78.1044C210.686 78.1044 211.036 77.9917 211.322 77.7663C211.612 77.5369 211.833 77.217 211.986 76.8065C212.143 76.396 212.221 75.915 212.221 75.3636C212.221 74.8123 212.145 74.3333 211.992 73.9268C211.839 73.5204 211.618 73.2064 211.328 72.9851C211.038 72.7637 210.686 72.6531 210.271 72.6531C209.849 72.6531 209.493 72.7678 209.203 72.9972C208.913 73.2266 208.694 73.5445 208.545 73.951C208.396 74.3575 208.322 74.8284 208.322 75.3636C208.322 75.9029 208.396 76.3799 208.545 76.7944C208.698 77.2049 208.917 77.5269 209.203 77.7603C209.493 77.9897 209.849 78.1044 210.271 78.1044ZM218.659 69.7915V67.6364H228.813V69.7915H225.028V80H222.444V69.7915H218.659ZM229.636 80V67.6364H237.966V69.7915H232.25V72.7376H237.538V74.8928H232.25V77.8448H237.991V80H229.636ZM243.578 80H239.195V67.6364H243.614C244.857 67.6364 245.928 67.8839 246.825 68.3789C247.723 68.8699 248.413 69.5762 248.896 70.4979C249.383 71.4195 249.627 72.5223 249.627 73.8061C249.627 75.094 249.383 76.2008 248.896 77.1264C248.413 78.0521 247.719 78.7624 246.813 79.2575C245.912 79.7525 244.833 80 243.578 80ZM241.809 77.7603H243.469C244.242 77.7603 244.892 77.6235 245.419 77.3498C245.95 77.0721 246.348 76.6435 246.614 76.0639C246.884 75.4804 247.019 74.7277 247.019 73.8061C247.019 72.8925 246.884 72.146 246.614 71.5664C246.348 70.9869 245.952 70.5603 245.425 70.2866C244.898 70.0129 244.248 69.8761 243.475 69.8761H241.809V77.7603ZM257.975 80.1811C257.021 80.1811 256.2 79.9879 255.512 79.6016C254.828 79.2112 254.301 78.6598 253.93 77.9474C253.56 77.2311 253.375 76.3839 253.375 75.4059C253.375 74.4521 253.56 73.6149 253.93 72.8945C254.301 72.1741 254.822 71.6127 255.494 71.2102C256.17 70.8078 256.963 70.6065 257.872 70.6065C258.484 70.6065 259.054 70.7051 259.581 70.9023C260.112 71.0955 260.575 71.3873 260.969 71.7777C261.368 72.1681 261.678 72.6591 261.899 73.2507C262.12 73.8383 262.231 74.5265 262.231 75.3153V76.0217H254.401V74.4279H259.81C259.81 74.0576 259.73 73.7296 259.569 73.4439C259.408 73.1581 259.184 72.9348 258.899 72.7738C258.617 72.6088 258.289 72.5263 257.915 72.5263C257.524 72.5263 257.178 72.6168 256.876 72.7979C256.578 72.975 256.345 73.2145 256.176 73.5163C256.007 73.8142 255.92 74.1462 255.916 74.5124V76.0277C255.916 76.4865 256.001 76.8829 256.17 77.217C256.343 77.551 256.586 77.8086 256.9 77.9897C257.214 78.1708 257.587 78.2614 258.017 78.2614C258.303 78.2614 258.565 78.2211 258.802 78.1406C259.039 78.0601 259.243 77.9394 259.412 77.7784C259.581 77.6174 259.71 77.4202 259.798 77.1868L262.177 77.3438C262.056 77.9152 261.808 78.4143 261.434 78.8409C261.064 79.2635 260.585 79.5935 259.997 79.831C259.414 80.0644 258.74 80.1811 257.975 80.1811ZM271.455 70.7273L268.213 80H265.316L262.074 70.7273H264.79L266.716 77.3619H266.813L268.733 70.7273H271.455ZM275.848 80.1811C274.894 80.1811 274.073 79.9879 273.385 79.6016C272.701 79.2112 272.174 78.6598 271.803 77.9474C271.433 77.2311 271.248 76.3839 271.248 75.4059C271.248 74.4521 271.433 73.6149 271.803 72.8945C272.174 72.1741 272.695 71.6127 273.367 71.2102C274.043 70.8078 274.836 70.6065 275.746 70.6065C276.357 70.6065 276.927 70.7051 277.454 70.9023C277.985 71.0955 278.448 71.3873 278.843 71.7777C279.241 72.1681 279.551 72.6591 279.772 73.2507C279.994 73.8383 280.104 74.5265 280.104 75.3153V76.0217H272.274V74.4279H277.683C277.683 74.0576 277.603 73.7296 277.442 73.4439C277.281 73.1581 277.058 72.9348 276.772 72.7738C276.49 72.6088 276.162 72.5263 275.788 72.5263C275.397 72.5263 275.051 72.6168 274.75 72.7979C274.452 72.975 274.218 73.2145 274.049 73.5163C273.88 73.8142 273.794 74.1462 273.79 74.5124V76.0277C273.79 76.4865 273.874 76.8829 274.043 77.217C274.216 77.551 274.46 77.8086 274.774 77.9897C275.088 78.1708 275.46 78.2614 275.89 78.2614C276.176 78.2614 276.438 78.2211 276.675 78.1406C276.913 78.0601 277.116 77.9394 277.285 77.7784C277.454 77.6174 277.583 77.4202 277.671 77.1868L280.05 77.3438C279.929 77.9152 279.682 78.4143 279.307 78.8409C278.937 79.2635 278.458 79.5935 277.871 79.831C277.287 80.0644 276.613 80.1811 275.848 80.1811ZM283.504 74.6392V80H280.933V70.7273H283.384V72.3633H283.492C283.697 71.824 284.042 71.3974 284.525 71.0835C285.007 70.7655 285.593 70.6065 286.281 70.6065C286.925 70.6065 287.487 70.7474 287.966 71.0291C288.444 71.3108 288.817 71.7133 289.082 72.2365C289.348 72.7557 289.481 73.3755 289.481 74.0959V80H286.909V74.5547C286.913 73.9872 286.768 73.5445 286.474 73.2266C286.181 72.9046 285.776 72.7436 285.261 72.7436C284.915 72.7436 284.609 72.8181 284.343 72.967C284.082 73.1159 283.877 73.3332 283.728 73.619C283.583 73.9007 283.508 74.2408 283.504 74.6392ZM295.59 70.7273V72.6591H290.006V70.7273H295.59ZM291.273 68.5057H293.845V77.1506C293.845 77.388 293.881 77.5732 293.954 77.706C294.026 77.8348 294.127 77.9253 294.256 77.9776C294.389 78.0299 294.541 78.0561 294.715 78.0561C294.835 78.0561 294.956 78.046 295.077 78.0259C295.197 78.0018 295.29 77.9837 295.354 77.9716L295.759 79.8853C295.63 79.9255 295.449 79.9718 295.216 80.0241C294.982 80.0805 294.698 80.1147 294.364 80.1268C293.745 80.1509 293.201 80.0684 292.734 79.8793C292.272 79.6901 291.911 79.3963 291.654 78.9979C291.396 78.5994 291.269 78.0964 291.273 77.4886V68.5057Z" fill="white"/>
</svg>
