<svg width="170" height="47" viewBox="0 0 170 47" fill="none" xmlns="http://www.w3.org/2000/svg">
<path d="M15.8203 14.4219V32H7.03125V14.4219H0V7.39062H22.8516V14.4219H15.8203ZM45.7031 7.39062V14.4219H33.3984V16.1797H45.7031V23.2109H33.3984V24.9688H45.7031V32H24.6094V7.39062H45.7031ZM47.4609 32V7.39062H59.7656C67.9688 7.39062 72.0703 11.4922 72.0703 19.6953C72.0703 27.8984 67.9688 32 59.7656 32H47.4609ZM56.25 14.4219V24.9688H59.7656C62.1094 24.9688 63.2812 23.2109 63.2812 19.6953C63.2812 16.1797 62.1094 14.4219 59.7656 14.4219H56.25Z" fill="#FF2B06"/>
<path d="M78.9922 15.7969L74 7.59375H80.4453L82.1914 11.1094L83.9727 7.59375H90.4062L85.4141 15.7734L90.4062 24H83.9727L82.2031 20.4844L80.3867 24H74L78.9922 15.7969Z" fill="#FF2B06"/>
<path d="M96.0762 7.17773H107.695C109.992 7.17773 111.844 7.82812 113.25 9.12891C114.656 10.418 115.359 12.2344 115.359 14.5781C115.359 16.5938 114.732 18.3516 113.479 19.8516C112.225 21.3398 110.297 22.084 107.695 22.084H99.5742V33H96.0762V7.17773ZM111.826 14.5957C111.826 12.6973 111.123 11.4082 109.717 10.7285C108.943 10.3652 107.883 10.1836 106.535 10.1836H99.5742V19.1309H106.535C108.105 19.1309 109.377 18.7969 110.35 18.1289C111.334 17.4609 111.826 16.2832 111.826 14.5957ZM130.635 6.47461C133.904 6.47461 136.441 7.33594 138.246 9.05859C140.051 10.7812 141.053 12.7383 141.252 14.9297H137.842C137.455 13.2656 136.682 11.9473 135.521 10.9746C134.373 10.002 132.756 9.51562 130.67 9.51562C128.127 9.51562 126.07 10.4121 124.5 12.2051C122.941 13.9863 122.162 16.7227 122.162 20.4141C122.162 23.4375 122.865 25.8926 124.271 27.7793C125.689 29.6543 127.799 30.5918 130.6 30.5918C133.178 30.5918 135.141 29.6016 136.488 27.6211C137.203 26.5781 137.736 25.207 138.088 23.5078H141.498C141.193 26.2266 140.186 28.5059 138.475 30.3457C136.424 32.5605 133.658 33.668 130.178 33.668C127.178 33.668 124.658 32.7598 122.619 30.9434C119.936 28.541 118.594 24.832 118.594 19.8164C118.594 16.0078 119.602 12.8848 121.617 10.4473C123.797 7.79883 126.803 6.47461 130.635 6.47461ZM146.104 7.17773H164.93V10.3418H149.514V18.1816H163.77V21.1699H149.514V29.9238H165.193V33H146.104V7.17773Z" fill="black"/>
<path d="M1.7745 38.8182L2.72585 40.6298L3.70082 38.8182H5.17507L3.67383 41.4091L5.21555 44H3.74805L2.72585 42.2086L1.72053 44H0.236151L1.7745 41.4091L0.290128 38.8182H1.7745Z" fill="#FF2B06"/>
<path d="M7.60118 40.7141V39.5165H12.2601V40.7141H7.60118ZM7.60118 42.9542V41.7566H12.2601V42.9542H7.60118ZM14.9831 44V38.8182H16.4202V44H14.9831ZM15.705 38.1502C15.4914 38.1502 15.3081 38.0794 15.1551 37.9377C15.0044 37.7937 14.9291 37.6217 14.9291 37.4215C14.9291 37.2236 15.0044 37.0538 15.1551 36.9121C15.3081 36.7682 15.4914 36.6962 15.705 36.6962C15.9187 36.6962 16.1009 36.7682 16.2515 36.9121C16.4045 37.0538 16.4809 37.2236 16.4809 37.4215C16.4809 37.6217 16.4045 37.7937 16.2515 37.9377C16.1009 38.0794 15.9187 38.1502 15.705 38.1502ZM18.5336 41.0043V44H17.0965V38.8182H18.4661V39.7324H18.5269C18.6416 39.431 18.8339 39.1926 19.1037 39.0172C19.3736 38.8395 19.7009 38.7507 20.0854 38.7507C20.4453 38.7507 20.759 38.8294 21.0267 38.9869C21.2943 39.1443 21.5024 39.3692 21.6508 39.6616C21.7992 39.9517 21.8734 40.2981 21.8734 40.7006V44H20.4363V40.957C20.4386 40.6399 20.3576 40.3925 20.1934 40.2148C20.0292 40.0349 19.8032 39.945 19.5153 39.945C19.3219 39.945 19.151 39.9866 19.0025 40.0698C18.8563 40.153 18.7416 40.2744 18.6584 40.4341C18.5775 40.5916 18.5359 40.7816 18.5336 41.0043ZM24.4406 44.0843C24.047 44.0843 23.6905 43.9831 23.3711 43.7807C23.054 43.5761 22.8021 43.2758 22.6155 42.88C22.431 42.4819 22.3388 41.9938 22.3388 41.4158C22.3388 40.8221 22.4344 40.3284 22.6256 39.9348C22.8168 39.539 23.0709 39.2433 23.388 39.0476C23.7074 38.8497 24.0571 38.7507 24.4372 38.7507C24.7273 38.7507 24.9691 38.8002 25.1625 38.8991C25.3582 38.9959 25.5156 39.1173 25.6348 39.2635C25.7563 39.4074 25.8485 39.5491 25.9115 39.6886H25.9553V37.0909H27.3891V44H25.9722V43.1701H25.9115C25.844 43.314 25.7484 43.4569 25.6247 43.5985C25.5032 43.738 25.3447 43.8538 25.149 43.946C24.9556 44.0382 24.7195 44.0843 24.4406 44.0843ZM24.896 42.9407C25.1277 42.9407 25.3233 42.8777 25.483 42.7518C25.6449 42.6236 25.7686 42.4448 25.8541 42.2154C25.9418 41.986 25.9857 41.7172 25.9857 41.4091C25.9857 41.101 25.9429 40.8333 25.8575 40.6062C25.772 40.379 25.6483 40.2036 25.4864 40.0799C25.3244 39.9562 25.1277 39.8944 24.896 39.8944C24.6599 39.8944 24.4608 39.9585 24.2989 40.0866C24.1369 40.2148 24.0144 40.3925 23.9312 40.6197C23.8479 40.8468 23.8063 41.11 23.8063 41.4091C23.8063 41.7105 23.8479 41.977 23.9312 42.2086C24.0166 42.438 24.1392 42.618 24.2989 42.7484C24.4608 42.8766 24.6599 42.9407 24.896 42.9407ZM30.4572 44.1012C29.9242 44.1012 29.4653 43.9933 29.0808 43.7773C28.6984 43.5592 28.4038 43.2511 28.1969 42.853C27.99 42.4527 27.8865 41.9792 27.8865 41.4327C27.8865 40.8997 27.99 40.4319 28.1969 40.0293C28.4038 39.6267 28.695 39.313 29.0706 39.0881C29.4485 38.8632 29.8915 38.7507 30.3998 38.7507C30.7417 38.7507 31.0599 38.8058 31.3546 38.916C31.6514 39.024 31.9101 39.187 32.1305 39.4052C32.3531 39.6233 32.5263 39.8977 32.65 40.2283C32.7737 40.5567 32.8356 40.9413 32.8356 41.3821V41.7768H28.46V40.8862H31.4827C31.4827 40.6793 31.4378 40.496 31.3478 40.3363C31.2578 40.1766 31.133 40.0518 30.9733 39.9618C30.8159 39.8696 30.6326 39.8235 30.4234 39.8235C30.2053 39.8235 30.0119 39.8741 29.8432 39.9753C29.6768 40.0743 29.5463 40.2081 29.4519 40.3768C29.3574 40.5432 29.309 40.7288 29.3068 40.9334V41.7802C29.3068 42.0366 29.354 42.2581 29.4485 42.4448C29.5452 42.6315 29.6813 42.7754 29.8567 42.8766C30.0321 42.9778 30.2401 43.0284 30.4808 43.0284C30.6405 43.0284 30.7867 43.0059 30.9194 42.9609C31.0521 42.916 31.1656 42.8485 31.2601 42.7585C31.3546 42.6686 31.4265 42.5584 31.476 42.4279L32.8052 42.5156C32.7377 42.835 32.5994 43.1139 32.3902 43.3523C32.1833 43.5884 31.9157 43.7728 31.5873 43.9055C31.2612 44.036 30.8845 44.1012 30.4572 44.1012ZM33.2984 45.9432V38.8182H34.7153V39.6886H34.7794C34.8424 39.5491 34.9335 39.4074 35.0527 39.2635C35.1741 39.1173 35.3316 38.9959 35.525 38.8991C35.7206 38.8002 35.9635 38.7507 36.2537 38.7507C36.6315 38.7507 36.9801 38.8497 37.2995 39.0476C37.6188 39.2433 37.8741 39.539 38.0653 39.9348C38.2564 40.3284 38.352 40.8221 38.352 41.4158C38.352 41.9938 38.2587 42.4819 38.072 42.88C37.8876 43.2758 37.6357 43.5761 37.3163 43.7807C36.9992 43.9831 36.6439 44.0843 36.2503 44.0843C35.9714 44.0843 35.7341 44.0382 35.5385 43.946C35.345 43.8538 35.1865 43.738 35.0628 43.5985C34.9391 43.4569 34.8446 43.314 34.7794 43.1701H34.7356V45.9432H33.2984ZM34.7052 41.4091C34.7052 41.7172 34.7479 41.986 34.8334 42.2154C34.9189 42.4448 35.0426 42.6236 35.2045 42.7518C35.3664 42.8777 35.5632 42.9407 35.7949 42.9407C36.0288 42.9407 36.2267 42.8766 36.3886 42.7484C36.5505 42.618 36.6731 42.438 36.7563 42.2086C36.8418 41.977 36.8845 41.7105 36.8845 41.4091C36.8845 41.11 36.8429 40.8468 36.7597 40.6197C36.6765 40.3925 36.5539 40.2148 36.392 40.0866C36.2301 39.9585 36.031 39.8944 35.7949 39.8944C35.561 39.8944 35.363 39.9562 35.2011 40.0799C35.0414 40.2036 34.9189 40.379 34.8334 40.6062C34.7479 40.8333 34.7052 41.101 34.7052 41.4091ZM41.1966 44.1012C40.6636 44.1012 40.2048 43.9933 39.8202 43.7773C39.4379 43.5592 39.1432 43.2511 38.9363 42.853C38.7294 42.4527 38.626 41.9792 38.626 41.4327C38.626 40.8997 38.7294 40.4319 38.9363 40.0293C39.1432 39.6267 39.4345 39.313 39.8101 39.0881C40.1879 38.8632 40.631 38.7507 41.1393 38.7507C41.4811 38.7507 41.7994 38.8058 42.094 38.916C42.3909 39.024 42.6495 39.187 42.8699 39.4052C43.0926 39.6233 43.2658 39.8977 43.3895 40.2283C43.5132 40.5567 43.575 40.9413 43.575 41.3821V41.7768H39.1995V40.8862H42.2222C42.2222 40.6793 42.1772 40.496 42.0873 40.3363C41.9973 40.1766 41.8725 40.0518 41.7128 39.9618C41.5554 39.8696 41.3721 39.8235 41.1629 39.8235C40.9447 39.8235 40.7513 39.8741 40.5826 39.9753C40.4162 40.0743 40.2858 40.2081 40.1913 40.3768C40.0968 40.5432 40.0485 40.7288 40.0462 40.9334V41.7802C40.0462 42.0366 40.0935 42.2581 40.1879 42.4448C40.2846 42.6315 40.4207 42.7754 40.5961 42.8766C40.7716 42.9778 40.9796 43.0284 41.2202 43.0284C41.3799 43.0284 41.5261 43.0059 41.6588 42.9609C41.7915 42.916 41.9051 42.8485 41.9995 42.7585C42.094 42.6686 42.166 42.5584 42.2155 42.4279L43.5446 42.5156C43.4772 42.835 43.3389 43.1139 43.1297 43.3523C42.9228 43.5884 42.6551 43.7728 42.3268 43.9055C42.0007 44.036 41.624 44.1012 41.1966 44.1012ZM45.475 41.0043V44H44.0379V38.8182H45.4075V39.7324H45.4683C45.583 39.431 45.7753 39.1926 46.0451 39.0172C46.315 38.8395 46.6423 38.7507 47.0269 38.7507C47.3867 38.7507 47.7004 38.8294 47.9681 38.9869C48.2357 39.1443 48.4438 39.3692 48.5922 39.6616C48.7406 39.9517 48.8149 40.2981 48.8149 40.7006V44H47.3777V40.957C47.38 40.6399 47.299 40.3925 47.1348 40.2148C46.9706 40.0349 46.7446 39.945 46.4567 39.945C46.2633 39.945 46.0924 39.9866 45.9439 40.0698C45.7977 40.153 45.683 40.2744 45.5998 40.4341C45.5189 40.5916 45.4773 40.7816 45.475 41.0043ZM51.382 44.0843C50.9884 44.0843 50.6319 43.9831 50.3126 43.7807C49.9954 43.5761 49.7435 43.2758 49.5569 42.88C49.3725 42.4819 49.2802 41.9938 49.2802 41.4158C49.2802 40.8221 49.3758 40.3284 49.567 39.9348C49.7582 39.539 50.0123 39.2433 50.3294 39.0476C50.6488 38.8497 50.9985 38.7507 51.3786 38.7507C51.6687 38.7507 51.9105 38.8002 52.1039 38.8991C52.2996 38.9959 52.457 39.1173 52.5762 39.2635C52.6977 39.4074 52.7899 39.5491 52.8529 39.6886H52.8967V37.0909H54.3305V44H52.9136V43.1701H52.8529C52.7854 43.314 52.6898 43.4569 52.5661 43.5985C52.4447 43.738 52.2861 43.8538 52.0904 43.946C51.897 44.0382 51.6609 44.0843 51.382 44.0843ZM51.8374 42.9407C52.0691 42.9407 52.2647 42.8777 52.4244 42.7518C52.5863 42.6236 52.71 42.4448 52.7955 42.2154C52.8832 41.986 52.9271 41.7172 52.9271 41.4091C52.9271 41.101 52.8843 40.8333 52.7989 40.6062C52.7134 40.379 52.5897 40.2036 52.4278 40.0799C52.2659 39.9562 52.0691 39.8944 51.8374 39.8944C51.6013 39.8944 51.4022 39.9585 51.2403 40.0866C51.0784 40.2148 50.9558 40.3925 50.8726 40.6197C50.7894 40.8468 50.7477 41.11 50.7477 41.4091C50.7477 41.7105 50.7894 41.977 50.8726 42.2086C50.958 42.438 51.0806 42.618 51.2403 42.7484C51.4022 42.8766 51.6013 42.9407 51.8374 42.9407ZM57.3986 44.1012C56.8656 44.1012 56.4068 43.9933 56.0222 43.7773C55.6398 43.5592 55.3452 43.2511 55.1383 42.853C54.9314 42.4527 54.8279 41.9792 54.8279 41.4327C54.8279 40.8997 54.9314 40.4319 55.1383 40.0293C55.3452 39.6267 55.6365 39.313 56.012 39.0881C56.3899 38.8632 56.833 38.7507 57.3412 38.7507C57.6831 38.7507 58.0013 38.8058 58.296 38.916C58.5928 39.024 58.8515 39.187 59.0719 39.4052C59.2945 39.6233 59.4677 39.8977 59.5914 40.2283C59.7151 40.5567 59.777 40.9413 59.777 41.3821V41.7768H55.4014V40.8862H58.4242C58.4242 40.6793 58.3792 40.496 58.2892 40.3363C58.1993 40.1766 58.0744 40.0518 57.9147 39.9618C57.7573 39.8696 57.574 39.8235 57.3649 39.8235C57.1467 39.8235 56.9533 39.8741 56.7846 39.9753C56.6182 40.0743 56.4877 40.2081 56.3933 40.3768C56.2988 40.5432 56.2504 40.7288 56.2482 40.9334V41.7802C56.2482 42.0366 56.2954 42.2581 56.3899 42.4448C56.4866 42.6315 56.6227 42.7754 56.7981 42.8766C56.9735 42.9778 57.1816 43.0284 57.4222 43.0284C57.5819 43.0284 57.7281 43.0059 57.8608 42.9609C57.9935 42.916 58.107 42.8485 58.2015 42.7585C58.296 42.6686 58.3679 42.5584 58.4174 42.4279L59.7466 42.5156C59.6791 42.835 59.5408 43.1139 59.3316 43.3523C59.1247 43.5884 58.8571 43.7728 58.5287 43.9055C58.2026 44.036 57.8259 44.1012 57.3986 44.1012ZM61.677 41.0043V44H60.2398V38.8182H61.6095V39.7324H61.6702C61.7849 39.431 61.9772 39.1926 62.2471 39.0172C62.517 38.8395 62.8442 38.7507 63.2288 38.7507C63.5887 38.7507 63.9024 38.8294 64.17 38.9869C64.4377 39.1443 64.6457 39.3692 64.7942 39.6616C64.9426 39.9517 65.0168 40.2981 65.0168 40.7006V44H63.5797V40.957C63.5819 40.6399 63.5009 40.3925 63.3368 40.2148C63.1726 40.0349 62.9466 39.945 62.6587 39.945C62.4653 39.945 62.2943 39.9866 62.1459 40.0698C61.9997 40.153 61.885 40.2744 61.8018 40.4341C61.7208 40.5916 61.6792 40.7816 61.677 41.0043ZM68.4307 38.8182V39.8977H65.3101V38.8182H68.4307ZM66.0186 37.5767H67.4557V42.4077C67.4557 42.5404 67.476 42.6438 67.5165 42.718C67.5569 42.79 67.6132 42.8406 67.6851 42.8699C67.7594 42.8991 67.8448 42.9137 67.9415 42.9137C68.009 42.9137 68.0765 42.9081 68.1439 42.8968C68.2114 42.8833 68.2631 42.8732 68.2991 42.8665L68.5252 43.9359C68.4532 43.9584 68.352 43.9843 68.2215 44.0135C68.0911 44.045 67.9325 44.0641 67.7459 44.0708C67.3995 44.0843 67.0959 44.0382 66.835 43.9325C66.5764 43.8268 66.3751 43.6626 66.2311 43.44C66.0872 43.2173 66.0163 42.9362 66.0186 42.5966V37.5767ZM70.4403 37.0909V44H69.0032V37.0909H70.4403ZM72.0038 45.9432C71.8217 45.9432 71.6507 45.9286 71.491 45.8993C71.3336 45.8723 71.2032 45.8375 71.0997 45.7947L71.4236 44.7219C71.5923 44.7737 71.7441 44.8018 71.879 44.8063C72.0162 44.8108 72.1343 44.7793 72.2332 44.7118C72.3344 44.6444 72.4165 44.5297 72.4795 44.3677L72.5638 44.1484L70.705 38.8182H72.2164L73.2892 42.6236H73.3431L74.4261 38.8182H75.9475L73.9335 44.56C73.8368 44.8389 73.7052 45.0818 73.5388 45.2887C73.3746 45.4979 73.1666 45.6587 72.9147 45.7711C72.6628 45.8858 72.3592 45.9432 72.0038 45.9432ZM80.273 44.1012C79.7489 44.1012 79.2958 43.9899 78.9134 43.7672C78.5333 43.5423 78.2398 43.2297 78.0329 42.8294C77.826 42.4268 77.7225 41.9601 77.7225 41.4293C77.7225 40.8941 77.826 40.4263 78.0329 40.0259C78.2398 39.6233 78.5333 39.3107 78.9134 39.0881C79.2958 38.8632 79.7489 38.7507 80.273 38.7507C80.797 38.7507 81.2491 38.8632 81.6292 39.0881C82.0115 39.3107 82.3061 39.6233 82.513 40.0259C82.7199 40.4263 82.8234 40.8941 82.8234 41.4293C82.8234 41.9601 82.7199 42.4268 82.513 42.8294C82.3061 43.2297 82.0115 43.5423 81.6292 43.7672C81.2491 43.9899 80.797 44.1012 80.273 44.1012ZM80.2797 42.9879C80.5181 42.9879 80.7172 42.9205 80.8768 42.7855C81.0365 42.6483 81.1569 42.4616 81.2378 42.2255C81.321 41.9893 81.3626 41.7206 81.3626 41.4192C81.3626 41.1178 81.321 40.8491 81.2378 40.6129C81.1569 40.3768 81.0365 40.1901 80.8768 40.0529C80.7172 39.9157 80.5181 39.8471 80.2797 39.8471C80.0391 39.8471 79.8367 39.9157 79.6725 40.0529C79.5105 40.1901 79.388 40.3768 79.3048 40.6129C79.2238 40.8491 79.1833 41.1178 79.1833 41.4192C79.1833 41.7206 79.2238 41.9893 79.3048 42.2255C79.388 42.4616 79.5105 42.6483 79.6725 42.7855C79.8367 42.9205 80.0391 42.9879 80.2797 42.9879ZM83.2829 44V38.8182H84.6762V39.7223H84.7301C84.8246 39.4007 84.9832 39.1578 85.2058 38.9936C85.4285 38.8272 85.6849 38.744 85.975 38.744C86.047 38.744 86.1246 38.7485 86.2078 38.7575C86.291 38.7665 86.3641 38.7788 86.4271 38.7946V40.0698C86.3596 40.0495 86.2663 40.0315 86.1471 40.0158C86.0279 40.0001 85.9188 39.9922 85.8198 39.9922C85.6084 39.9922 85.4195 40.0383 85.2531 40.1305C85.0889 40.2205 84.9584 40.3464 84.8617 40.5083C84.7673 40.6703 84.72 40.8569 84.72 41.0684V44H83.2829ZM88.7884 46.0511C88.3228 46.0511 87.9236 45.987 87.5908 45.8588C87.2602 45.7329 86.997 45.5608 86.8014 45.3427C86.6057 45.1245 86.4786 44.8794 86.4201 44.6072L87.7493 44.4284C87.7898 44.5319 87.8539 44.6286 87.9416 44.7186C88.0293 44.8085 88.1452 44.8805 88.2891 44.9345C88.4353 44.9907 88.613 45.0188 88.8221 45.0188C89.1348 45.0188 89.3923 44.9424 89.5947 44.7894C89.7993 44.6387 89.9017 44.3857 89.9017 44.0304V43.0824H89.841C89.778 43.2263 89.6835 43.3624 89.5576 43.4906C89.4316 43.6188 89.2697 43.7234 89.0718 43.8043C88.8739 43.8853 88.6377 43.9258 88.3633 43.9258C87.9742 43.9258 87.62 43.8358 87.3006 43.6559C86.9835 43.4737 86.7305 43.196 86.5416 42.8226C86.3549 42.447 86.2616 41.9725 86.2616 41.399C86.2616 40.812 86.3572 40.3217 86.5483 39.9281C86.7395 39.5345 86.9937 39.2399 87.3108 39.0442C87.6301 38.8485 87.9799 38.7507 88.36 38.7507C88.6501 38.7507 88.893 38.8002 89.0886 38.8991C89.2843 38.9959 89.4417 39.1173 89.5609 39.2635C89.6824 39.4074 89.7757 39.5491 89.841 39.6886H89.8949V38.8182H91.322V44.0506C91.322 44.4914 91.214 44.8603 90.9981 45.1571C90.7822 45.454 90.4831 45.6767 90.1007 45.8251C89.7206 45.9758 89.2832 46.0511 88.7884 46.0511ZM88.8188 42.8462C89.0504 42.8462 89.2461 42.7889 89.4058 42.6742C89.5677 42.5572 89.6914 42.3908 89.7769 42.1749C89.8646 41.9567 89.9084 41.6958 89.9084 41.3922C89.9084 41.0886 89.8657 40.8255 89.7802 40.6028C89.6948 40.3779 89.5711 40.2036 89.4091 40.0799C89.2472 39.9562 89.0504 39.8944 88.8188 39.8944C88.5826 39.8944 88.3836 39.9585 88.2216 40.0866C88.0597 40.2126 87.9371 40.388 87.8539 40.6129C87.7707 40.8378 87.7291 41.0976 87.7291 41.3922C87.7291 41.6913 87.7707 41.95 87.8539 42.1681C87.9394 42.3841 88.062 42.5516 88.2216 42.6708C88.3836 42.7878 88.5826 42.8462 88.8188 42.8462ZM93.4682 44.0978C93.1376 44.0978 92.843 44.0405 92.5843 43.9258C92.3257 43.8088 92.121 43.6368 91.9704 43.4096C91.8219 43.1802 91.7477 42.8946 91.7477 42.5527C91.7477 42.2649 91.8006 42.0231 91.9063 41.8274C92.012 41.6317 92.1559 41.4743 92.3381 41.3551C92.5203 41.2359 92.7272 41.146 92.9588 41.0852C93.1927 41.0245 93.4379 40.9818 93.6943 40.957C93.9956 40.9255 94.2385 40.8963 94.423 40.8693C94.6074 40.8401 94.7412 40.7973 94.8244 40.7411C94.9076 40.6849 94.9492 40.6017 94.9492 40.4915V40.4712C94.9492 40.2576 94.8818 40.0923 94.7468 39.9753C94.6141 39.8584 94.4252 39.7999 94.1801 39.7999C93.9214 39.7999 93.7156 39.8572 93.5627 39.9719C93.4098 40.0844 93.3085 40.2261 93.2591 40.397L91.9299 40.2891C91.9973 39.9742 92.13 39.7021 92.328 39.4727C92.5259 39.241 92.7811 39.0633 93.0938 38.9396C93.4086 38.8137 93.773 38.7507 94.1868 38.7507C94.4747 38.7507 94.7502 38.7844 95.0133 38.8519C95.2787 38.9194 95.5137 39.024 95.7184 39.1657C95.9253 39.3074 96.0884 39.4895 96.2076 39.7122C96.3268 39.9326 96.3864 40.1969 96.3864 40.505V44H95.0234V43.2814H94.983C94.8998 43.4434 94.7884 43.5862 94.649 43.7099C94.5095 43.8313 94.342 43.9269 94.1463 43.9966C93.9506 44.0641 93.7246 44.0978 93.4682 44.0978ZM93.8798 43.106C94.0912 43.106 94.2779 43.0644 94.4398 42.9812C94.6018 42.8957 94.7288 42.781 94.821 42.6371C94.9132 42.4931 94.9594 42.3301 94.9594 42.1479V41.598C94.9144 41.6272 94.8525 41.6542 94.7738 41.679C94.6973 41.7015 94.6107 41.7228 94.514 41.7431C94.4173 41.7611 94.3206 41.7779 94.2239 41.7937C94.1272 41.8072 94.0395 41.8195 93.9608 41.8308C93.7921 41.8555 93.6448 41.8949 93.5188 41.9489C93.3929 42.0028 93.2951 42.0759 93.2253 42.1681C93.1556 42.2581 93.1207 42.3706 93.1207 42.5055C93.1207 42.7012 93.1916 42.8507 93.3333 42.9542C93.4772 43.0554 93.6594 43.106 93.8798 43.106ZM98.4635 41.0043V44H97.0263V38.8182H98.396V39.7324H98.4567C98.5714 39.431 98.7637 39.1926 99.0336 39.0172C99.3035 38.8395 99.6307 38.7507 100.015 38.7507C100.375 38.7507 100.689 38.8294 100.957 38.9869C101.224 39.1443 101.432 39.3692 101.581 39.6616C101.729 39.9517 101.803 40.2981 101.803 40.7006V44H100.366V40.957C100.368 40.6399 100.287 40.3925 100.123 40.2148C99.9591 40.0349 99.7331 39.945 99.4452 39.945C99.2518 39.945 99.0809 39.9866 98.9324 40.0698C98.7862 40.153 98.6715 40.2744 98.5883 40.4341C98.5073 40.5916 98.4657 40.7816 98.4635 41.0043ZM102.461 44V38.8182H103.898V44H102.461ZM103.183 38.1502C102.969 38.1502 102.786 38.0794 102.633 37.9377C102.482 37.7937 102.407 37.6217 102.407 37.4215C102.407 37.2236 102.482 37.0538 102.633 36.9121C102.786 36.7682 102.969 36.6962 103.183 36.6962C103.397 36.6962 103.579 36.7682 103.729 36.9121C103.882 37.0538 103.959 37.2236 103.959 37.4215C103.959 37.6217 103.882 37.7937 103.729 37.9377C103.579 38.0794 103.397 38.1502 103.183 38.1502ZM104.547 44V43.1431L107.084 40.0023V39.9652H104.635V38.8182H108.815V39.7527L106.433 42.8159V42.853H108.903V44H104.547ZM111.74 44.1012C111.207 44.1012 110.748 43.9933 110.363 43.7773C109.981 43.5592 109.686 43.2511 109.479 42.853C109.272 42.4527 109.169 41.9792 109.169 41.4327C109.169 40.8997 109.272 40.4319 109.479 40.0293C109.686 39.6267 109.978 39.313 110.353 39.0881C110.731 38.8632 111.174 38.7507 111.682 38.7507C112.024 38.7507 112.342 38.8058 112.637 38.916C112.934 39.024 113.193 39.187 113.413 39.4052C113.636 39.6233 113.809 39.8977 113.933 40.2283C114.056 40.5567 114.118 40.9413 114.118 41.3821V41.7768H109.743V40.8862H112.765C112.765 40.6793 112.72 40.496 112.63 40.3363C112.54 40.1766 112.416 40.0518 112.256 39.9618C112.098 39.8696 111.915 39.8235 111.706 39.8235C111.488 39.8235 111.294 39.8741 111.126 39.9753C110.959 40.0743 110.829 40.2081 110.734 40.3768C110.64 40.5432 110.592 40.7288 110.589 40.9334V41.7802C110.589 42.0366 110.637 42.2581 110.731 42.4448C110.828 42.6315 110.964 42.7754 111.139 42.8766C111.315 42.9778 111.523 43.0284 111.763 43.0284C111.923 43.0284 112.069 43.0059 112.202 42.9609C112.335 42.916 112.448 42.8485 112.543 42.7585C112.637 42.6686 112.709 42.5584 112.759 42.4279L114.088 42.5156C114.02 42.835 113.882 43.1139 113.673 43.3523C113.466 43.5884 113.198 43.7728 112.87 43.9055C112.544 44.036 112.167 44.1012 111.74 44.1012ZM116.49 44.0843C116.097 44.0843 115.74 43.9831 115.421 43.7807C115.104 43.5761 114.852 43.2758 114.665 42.88C114.481 42.4819 114.389 41.9938 114.389 41.4158C114.389 40.8221 114.484 40.3284 114.675 39.9348C114.867 39.539 115.121 39.2433 115.438 39.0476C115.757 38.8497 116.107 38.7507 116.487 38.7507C116.777 38.7507 117.019 38.8002 117.212 38.8991C117.408 38.9959 117.565 39.1173 117.685 39.2635C117.806 39.4074 117.898 39.5491 117.961 39.6886H118.005V37.0909H119.439V44H118.022V43.1701H117.961C117.894 43.314 117.798 43.4569 117.675 43.5985C117.553 43.738 117.394 43.8538 117.199 43.946C117.005 44.0382 116.769 44.0843 116.49 44.0843ZM116.946 42.9407C117.177 42.9407 117.373 42.8777 117.533 42.7518C117.695 42.6236 117.818 42.4448 117.904 42.2154C117.992 41.986 118.035 41.7172 118.035 41.4091C118.035 41.101 117.993 40.8333 117.907 40.6062C117.822 40.379 117.698 40.2036 117.536 40.0799C117.374 39.9562 117.177 39.8944 116.946 39.8944C116.71 39.8944 116.511 39.9585 116.349 40.0866C116.187 40.2148 116.064 40.3925 115.981 40.6197C115.898 40.8468 115.856 41.11 115.856 41.4091C115.856 41.7105 115.898 41.977 115.981 42.2086C116.066 42.438 116.189 42.618 116.349 42.7484C116.511 42.8766 116.71 42.9407 116.946 42.9407ZM121.633 38.2953V37.0909H127.307V38.2953H125.192V44H123.748V38.2953H121.633ZM127.767 44V37.0909H132.422V38.2953H129.228V39.9416H132.183V41.146H129.228V42.7956H132.436V44H127.767ZM135.558 44H133.109V37.0909H135.578C136.273 37.0909 136.871 37.2292 137.373 37.5059C137.875 37.7802 138.26 38.175 138.53 38.69C138.802 39.205 138.938 39.8213 138.938 40.5387C138.938 41.2584 138.802 41.8769 138.53 42.3942C138.26 42.9115 137.872 43.3084 137.366 43.585C136.862 43.8617 136.26 44 135.558 44ZM134.57 42.7484H135.497C135.929 42.7484 136.292 42.6719 136.587 42.519C136.884 42.3638 137.106 42.1243 137.255 41.8004C137.406 41.4743 137.481 41.0537 137.481 40.5387C137.481 40.0282 137.406 39.611 137.255 39.2871C137.106 38.9632 136.885 38.7248 136.59 38.5719C136.296 38.419 135.932 38.3425 135.501 38.3425H134.57V42.7484ZM143.604 44.1012C143.071 44.1012 142.612 43.9933 142.227 43.7773C141.845 43.5592 141.55 43.2511 141.343 42.853C141.136 42.4527 141.033 41.9792 141.033 41.4327C141.033 40.8997 141.136 40.4319 141.343 40.0293C141.55 39.6267 141.842 39.313 142.217 39.0881C142.595 38.8632 143.038 38.7507 143.546 38.7507C143.888 38.7507 144.206 38.8058 144.501 38.916C144.798 39.024 145.057 39.187 145.277 39.4052C145.5 39.6233 145.673 39.8977 145.796 40.2283C145.92 40.5567 145.982 40.9413 145.982 41.3821V41.7768H141.607V40.8862H144.629C144.629 40.6793 144.584 40.496 144.494 40.3363C144.404 40.1766 144.28 40.0518 144.12 39.9618C143.962 39.8696 143.779 39.8235 143.57 39.8235C143.352 39.8235 143.158 39.8741 142.99 39.9753C142.823 40.0743 142.693 40.2081 142.598 40.3768C142.504 40.5432 142.456 40.7288 142.453 40.9334V41.7802C142.453 42.0366 142.501 42.2581 142.595 42.4448C142.692 42.6315 142.828 42.7754 143.003 42.8766C143.179 42.9778 143.387 43.0284 143.627 43.0284C143.787 43.0284 143.933 43.0059 144.066 42.9609C144.199 42.916 144.312 42.8485 144.407 42.7585C144.501 42.6686 144.573 42.5584 144.622 42.4279L145.952 42.5156C145.884 42.835 145.746 43.1139 145.537 43.3523C145.33 43.5884 145.062 43.7728 144.734 43.9055C144.408 44.036 144.031 44.1012 143.604 44.1012ZM151.137 38.8182L149.325 44H147.706L145.894 38.8182H147.412L148.488 42.5257H148.542L149.615 38.8182H151.137ZM153.592 44.1012C153.059 44.1012 152.6 43.9933 152.215 43.7773C151.833 43.5592 151.538 43.2511 151.331 42.853C151.124 42.4527 151.021 41.9792 151.021 41.4327C151.021 40.8997 151.124 40.4319 151.331 40.0293C151.538 39.6267 151.83 39.313 152.205 39.0881C152.583 38.8632 153.026 38.7507 153.534 38.7507C153.876 38.7507 154.194 38.8058 154.489 38.916C154.786 39.024 155.045 39.187 155.265 39.4052C155.488 39.6233 155.661 39.8977 155.784 40.2283C155.908 40.5567 155.97 40.9413 155.97 41.3821V41.7768H151.595V40.8862H154.617C154.617 40.6793 154.572 40.496 154.482 40.3363C154.392 40.1766 154.268 40.0518 154.108 39.9618C153.95 39.8696 153.767 39.8235 153.558 39.8235C153.34 39.8235 153.146 39.8741 152.978 39.9753C152.811 40.0743 152.681 40.2081 152.586 40.3768C152.492 40.5432 152.444 40.7288 152.441 40.9334V41.7802C152.441 42.0366 152.489 42.2581 152.583 42.4448C152.68 42.6315 152.816 42.7754 152.991 42.8766C153.167 42.9778 153.375 43.0284 153.615 43.0284C153.775 43.0284 153.921 43.0059 154.054 42.9609C154.187 42.916 154.3 42.8485 154.395 42.7585C154.489 42.6686 154.561 42.5584 154.61 42.4279L155.94 42.5156C155.872 42.835 155.734 43.1139 155.525 43.3523C155.318 43.5884 155.05 43.7728 154.722 43.9055C154.396 44.036 154.019 44.1012 153.592 44.1012ZM157.87 41.0043V44H156.433V38.8182H157.803V39.7324H157.863C157.978 39.431 158.17 39.1926 158.44 39.0172C158.71 38.8395 159.037 38.7507 159.422 38.7507C159.782 38.7507 160.095 38.8294 160.363 38.9869C160.631 39.1443 160.839 39.3692 160.987 39.6616C161.136 39.9517 161.21 40.2981 161.21 40.7006V44H159.773V40.957C159.775 40.6399 159.694 40.3925 159.53 40.2148C159.366 40.0349 159.14 39.945 158.852 39.945C158.658 39.945 158.487 39.9866 158.339 40.0698C158.193 40.153 158.078 40.2744 157.995 40.4341C157.914 40.5916 157.872 40.7816 157.87 41.0043ZM164.624 38.8182V39.8977H161.503V38.8182H164.624ZM162.212 37.5767H163.649V42.4077C163.649 42.5404 163.669 42.6438 163.71 42.718C163.75 42.79 163.806 42.8406 163.878 42.8699C163.952 42.8991 164.038 42.9137 164.135 42.9137C164.202 42.9137 164.27 42.9081 164.337 42.8968C164.404 42.8833 164.456 42.8732 164.492 42.8665L164.718 43.9359C164.646 43.9584 164.545 43.9843 164.415 44.0135C164.284 44.045 164.126 44.0641 163.939 44.0708C163.593 44.0843 163.289 44.0382 163.028 43.9325C162.769 43.8268 162.568 43.6626 162.424 43.44C162.28 43.2173 162.209 42.9362 162.212 42.5966V37.5767Z" fill="black"/>
</svg>
